<svg xmlns="http://www.w3.org/2000/svg"><metadata/><defs><font id="super_plumber_brothersregular" horiz-adv-x="819"><font-face ascent="1536" descent="-512" units-per-em="2048"/><glyph horiz-adv-x="2048"/><glyph horiz-adv-x="2048"/><glyph horiz-adv-x="512"/><glyph horiz-adv-x="512"/><glyph horiz-adv-x="512"/><glyph horiz-adv-x="512"/><glyph d="M-8 -8v422h319v-422h-319zM-8 504v1548h319v-1548h-319z" horiz-adv-x="409" unicode="!"/><glyph d="M-8 1425v627h319v-627h-319zM401 1425v627h320v-627h-320z" unicode="&quot;"/><glyph d="M-8 965v421h205v91h-205v421h205v154h319v-154h90v154h320v-154h204v-421h-204v-91h204v-421h-204v-154h-320v154h-90v-154h-319v154h-205zM516 1386h90v91h-90v-91z" horiz-adv-x="1228" unicode="#"/><glyph d="M-8 248v575h319v-409h90v448h-102v51h-102v52h-103v51h-51v102h-51v678h51v102h51v103h51v51h154v154h115v-154h153v-51h51v-103h52v-102h51v-575h-320v409h-90v-397h51v-51h52v-52h102v-51h102v-51h52v-102h51v-678h-51v-103h-52v-102h-51v-51h-153v-154h-115v154h-154 v51h-51v102h-51v103h-51z" unicode="$"/><glyph d="M-8 -8v166h51v204h51v205h51v256h52v205h51v205h51v256h51v205h51v204h52v154h319v-166h-51v-205h-51v-204h-52v-256h-51v-205h-51v-205h-51v-256h-51v-205h-52v-205h-51v-153h-319zM-8 1630v422h319v-422h-319zM453 -8v422h319v-422h-319z" horiz-adv-x="870" unicode="%"/><glyph d="M-8 248v729h51v51h51v39h-51v51h-51v678h51v102h51v103h51v51h422v-51h51v-103h52v-102h51v-575h-320v409h-90v-448h103v-269h-103v-499h90v39h-51v370h473v-370h-102v-205h-51v-103h-52v-102h-51v-51h-422v51h-51v102h-51v103h-51z" horiz-adv-x="921" unicode="&amp;"/><glyph d="M-8 1425v627h319v-627h-319z" horiz-adv-x="409" unicode="'"/><glyph d="M-8 -213v2470h51v102h51v103h51v51h269v-422h-103v-2138h103v-422h-269v51h-51v103h-51v102h-51z" horiz-adv-x="512" unicode="("/><glyph d="M-8 -47h102v2138h-102v422h268v-51h51v-103h51v-102h52v-2470h-52v-102h-51v-103h-51v-51h-268v422z" horiz-adv-x="512" unicode=")"/><glyph d="M-8 1681v115h205v51h51v103h51v102h115v-102h51v-103h51v-51h205v-115h-51v-51h-52v-51h-51v-90h51v-154h52v-114h-115v51h-51v51h-103v51h-90v-51h-102v-51h-51v-51h-115v114h51v154h51v90h-51v51h-51v51h-51zM260 1591h39v142h-39v-142zM414 1591h39v142h-39v-142z" unicode="*"/><glyph d="M-8 811v422h307v409h319v-409h308v-422h-308v-410h-319v410h-307z" horiz-adv-x="1024" unicode="+"/><glyph d="M-8 -8v422h319v-627h-166v205h-153z" horiz-adv-x="409" unicode=","/><glyph d="M-8 811v422h934v-422h-934z" horiz-adv-x="1024" unicode="-"/><glyph d="M-8 -8v422h319v-422h-319z" horiz-adv-x="409" unicode="."/><glyph d="M-8 -8v166h51v204h51v205h51v256h52v205h51v205h51v256h51v205h51v204h52v154h319v-166h-51v-205h-51v-204h-52v-256h-51v-205h-51v-205h-51v-256h-51v-205h-52v-205h-51v-153h-319z" horiz-adv-x="870" unicode="/"/><glyph d="M-8 1989v63h166v-102h51v-103h39v51h51v103h51v51h422v-51h51v-103h51v-102h52v-1382h51v-103h51v-102h51v-103h51v-114h-114v51h-51v102h-52v103h-39v-103h-51v-102h-51v-51h-422v51h-51v102h-51v103h-51v1433h-52v103h-51v102h-51v103h-51zM516 414h90v448h-51v103h-39 v-551zM516 1233h51v-103h39v500h-90v-397z" horiz-adv-x="1228" unicode="0"/><glyph d="M-8 1528v370h51v52h51v51h51v51h320v-2060h-320v1638h-39v-51h-51v-51h-63z" horiz-adv-x="563" unicode="1"/><glyph d="M-8 -8v422h51v102h51v102h51v103h52v102h51v103h51v102h51v102h51v500h-90v-409h-319v575h51v102h51v103h51v51h422v-51h51v-103h52v-102h51v-575h-51v-103h-52v-102h-51v-103h-51v-102h-51v-102h-51v-103h-52v-102h-51v-90h410v-422h-729z" unicode="2"/><glyph d="M-8 248v575h319v-409h90v499h-102v269h102v448h-90v-409h-319v575h51v102h51v103h51v51h422v-51h51v-103h52v-102h51v-678h-51v-51h-52v-39h52v-51h51v-729h-51v-103h-52v-102h-51v-51h-422v51h-51v102h-51v103h-51z" unicode="3"/><glyph d="M-8 760v473h51v102h51v103h51v102h52v102h51v103h51v102h51v103h51v102h320v-870h102v-422h-102v-768h-320v768h-409zM260 1182h141v295h-39v-103h-51v-102h-51v-90z" horiz-adv-x="921" unicode="4"/><glyph d="M-8 248v626h319v-460h90v704h-409v934h729v-422h-410v-192h256v-52h51v-102h52v-102h51v-934h-51v-103h-52v-102h-51v-51h-422v51h-51v102h-51v103h-51z" unicode="5"/><glyph d="M-8 248v1548h51v102h51v103h51v51h422v-51h51v-103h52v-102h51v-268h-320v102h-90v-192h256v-52h51v-102h52v-102h51v-934h-51v-103h-52v-102h-51v-51h-422v51h-51v102h-51v103h-51zM311 414h90v704h-90v-704z" unicode="6"/><glyph d="M-8 -8v166h51v204h51v205h51v205h52v205h51v205h51v204h51v205h51v39h-409v422h729v-473h-51v-205h-52v-205h-51v-204h-51v-205h-51v-205h-51v-205h-52v-205h-51v-153h-319z" unicode="7"/><glyph d="M-8 248v985h51v51h51v39h-51v51h-51v422h51v102h51v103h51v51h422v-51h51v-103h52v-102h51v-422h-51v-51h-52v-39h52v-51h51v-985h-51v-103h-52v-102h-51v-51h-422v51h-51v102h-51v103h-51zM311 414h90v704h-90v-704zM311 1438h90v192h-90v-192z" unicode="8"/><glyph d="M-8 248v319h319v-153h90v243h-256v52h-51v102h-51v102h-51v883h51v102h51v103h51v51h422v-51h51v-103h52v-102h51v-1548h-51v-103h-52v-102h-51v-51h-422v51h-51v102h-51v103h-51zM311 977h90v653h-90v-653z" unicode="9"/><glyph d="M-8 -8v422h319v-422h-319zM-8 811v422h319v-422h-319z" horiz-adv-x="409" unicode=":"/><glyph d="M-8 -8v422h319v-627h-166v205h-153zM-8 811v422h319v-422h-319z" horiz-adv-x="409" unicode=";"/><glyph d="M-8 913v320h51v51h51v51h51v51h52v52h51v51h51v51h51v51h51v51h52v52h51v51h51v51h51v51h51v51h64v-421h-51v-52h-52v-51h-51v-51h-51v-51h-51v-51h-51v-52h-52v-51h-51v-90h51v-51h52v-51h51v-52h51v-51h51v-51h51v-51h52v-51h51v-422h-64v51h-51v51h-51v51h-51v52h-51 v51h-52v51h-51v51h-51v51h-51v52h-51v51h-52v51h-51v51h-51v51h-51z" unicode="&lt;"/><glyph d="M-8 504v422h934v-422h-934zM-8 1118v422h934v-422h-934z" horiz-adv-x="1024" unicode="="/><glyph d="M-8 248v422h51v51h51v51h51v51h52v51h51v52h51v51h51v51h51v90h-51v51h-51v52h-51v51h-51v51h-52v51h-51v51h-51v52h-51v421h63v-51h51v-51h52v-51h51v-51h51v-52h51v-51h51v-51h52v-51h51v-51h51v-52h51v-51h51v-51h52v-51h51v-320h-51v-51h-52v-51h-51v-51h-51v-51h-51 v-52h-51v-51h-52v-51h-51v-51h-51v-51h-51v-52h-51v-51h-52v-51h-51v-51h-63z" unicode="&gt;"/><glyph d="M-8 1221v575h51v102h51v103h51v51h422v-51h51v-103h52v-102h51v-575h-51v-103h-52v-102h-51v-103h-51v-409h-319v370h51v103h51v102h51v103h51v448h-90v-409h-319zM197 -8v422h319v-422h-319z" unicode="?"/><glyph d="M-8 248v1548h51v102h51v103h51v51h934v-51h51v-103h52v-102h51v-1036h-51v-103h-52v-102h-51v-51h-524v153h-102v52h-52v102h-51v102h-51v371h51v102h51v103h52v51h268v-51h51v-103h51v-102h51v-358h39v704h-653v-1216h666v-422h-781v51h-51v102h-51v103h-51zM567 977h39 v192h-39v-192z" horiz-adv-x="1331" unicode="@"/><glyph d="M-8 -8v1804h51v102h51v103h51v51h422v-51h51v-103h52v-102h51v-1804h-320v409h-90v-409h-319zM311 823h90v807h-90v-807z" unicode="A"/><glyph d="M-8 -8v2060h575v-51h51v-103h52v-102h51v-729h-51v-51h-52v-39h52v-51h51v-678h-51v-103h-52v-102h-51v-51h-217v422h51v397h-51v422h51v397h-90v-1638h-319z" unicode="B"/><glyph d="M-8 248v1548h51v102h51v103h51v51h422v-51h51v-103h52v-102h51v-575h-320v409h-90v-1216h90v409h320v-575h-51v-103h-52v-102h-51v-51h-422v51h-51v102h-51v103h-51z" unicode="C"/><glyph d="M-8 -8v2060h575v-51h51v-103h52v-102h51v-1548h-51v-103h-52v-102h-51v-51h-217v422h51v1216h-90v-1638h-319z" unicode="D"/><glyph d="M-8 -8v2060h729v-422h-410v-1216h410v-422h-729zM350 811v422h371v-422h-371z" unicode="E"/><glyph d="M-8 -8v2060h729v-422h-410v-1638h-319zM350 811v422h371v-422h-371z" unicode="F"/><glyph d="M-8 248v1548h51v102h51v103h51v51h422v-51h51v-103h52v-102h51v-371h-320v205h-90v-1216h90v716h320v-882h-51v-103h-52v-102h-51v-51h-422v51h-51v102h-51v103h-51z" unicode="G"/><glyph d="M-8 -8v2060h319v-819h90v819h320v-2060h-320v819h-90v-819h-319z" unicode="H"/><glyph d="M-8 -8v2060h319v-2060h-319z" horiz-adv-x="409" unicode="I"/><glyph d="M-8 248v575h319v-409h90v1638h320v-1804h-51v-103h-52v-102h-51v-51h-422v51h-51v102h-51v103h-51z" unicode="J"/><glyph d="M-8 -8v2060h319v-819h90v819h320v-985h-51v-51h-52v-39h52v-51h51v-934h-320v819h-90v-819h-319z" unicode="K"/><glyph d="M-8 -8v2060h319v-1638h410v-422h-729z" unicode="L"/><glyph d="M-8 -8v1804h51v102h51v103h51v51h269v-51h51v-103h51v-102h90v102h51v103h52v51h268v-51h51v-103h51v-102h51v-1804h-319v1638h-90v-1638h-320v1638h-90v-1638h-319z" horiz-adv-x="1228" unicode="M"/><glyph d="M-8 -8v1804h51v102h51v103h51v51h422v-51h51v-103h52v-102h51v-1804h-320v1638h-90v-1638h-319z" unicode="N"/><glyph d="M-8 248v1548h51v102h51v103h51v51h422v-51h51v-103h52v-102h51v-1548h-51v-103h-52v-102h-51v-51h-422v51h-51v102h-51v103h-51zM311 414h90v1216h-90v-1216z" unicode="O"/><glyph d="M-8 -8v2060h575v-51h51v-103h52v-102h51v-729h-51v-102h-52v-103h-51v-51h-217v422h51v397h-90v-1638h-319z" unicode="P"/><glyph d="M-8 248v1548h51v102h51v103h51v51h422v-51h51v-103h52v-102h51v-1382h153v-422h-729v51h-51v102h-51v103h-51zM311 414h90v1216h-90v-1216z" horiz-adv-x="972" unicode="Q"/><glyph d="M-8 -8v2060h575v-51h51v-103h52v-102h51v-729h-51v-51h-52v-39h52v-51h51v-934h-320v819h-51v422h51v397h-90v-1638h-319z" unicode="R"/><glyph d="M-8 248v575h319v-409h90v448h-102v51h-102v52h-103v51h-51v102h-51v678h51v102h51v103h51v51h422v-51h51v-103h52v-102h51v-575h-320v409h-90v-397h51v-51h52v-52h102v-51h102v-51h52v-102h51v-678h-51v-103h-52v-102h-51v-51h-422v51h-51v102h-51v103h-51z" unicode="S"/><glyph d="M-8 1630v422h729v-422h-205v-1638h-319v1638h-205z" unicode="T"/><glyph d="M-8 248v1804h319v-1638h90v1638h320v-1804h-51v-103h-52v-102h-51v-51h-422v51h-51v102h-51v103h-51z" unicode="U"/><glyph d="M-8 401v1651h319v-1638h90v1638h320v-1651h-51v-51h-52v-102h-51v-51h-51v-103h-51v-51h-51v-51h-115v51h-51v51h-51v103h-52v51h-51v102h-51v51h-51z" unicode="V"/><glyph d="M-8 248v1804h319v-1638h90v1638h320v-1638h90v1638h319v-1804h-51v-103h-51v-102h-51v-51h-268v51h-52v102h-51v103h-90v-103h-51v-102h-51v-51h-269v51h-51v102h-51v103h-51z" horiz-adv-x="1228" unicode="W"/><glyph d="M-8 -8v934h51v51h51v39h-51v51h-51v985h319v-819h90v819h320v-985h-51v-51h-52v-39h52v-51h51v-934h-320v819h-90v-819h-319z" unicode="X"/><glyph d="M-8 1067v985h319v-819h90v819h320v-985h-51v-51h-52v-51h-51v-52h-51v-921h-319v921h-52v52h-51v51h-51v51h-51z" unicode="Y"/><glyph d="M-8 -8v473h51v153h51v154h51v154h52v153h51v154h51v153h51v205h51v39h-409v422h729v-524h-51v-103h-52v-153h-51v-205h-51v-205h-51v-153h-51v-205h-52v-90h359v-422h-729z" unicode="Z"/><glyph d="M-8 -469v2982h422v-422h-103v-2138h103v-422h-422z" horiz-adv-x="512" unicode="["/><glyph d="M-8 1886v166h319v-154h51v-204h52v-205h51v-256h51v-205h51v-205h51v-256h52v-205h51v-204h51v-166h-319v153h-52v205h-51v205h-51v256h-51v205h-51v205h-52v256h-51v204h-51v205h-51z" horiz-adv-x="870" unicode="\"/><glyph d="M-8 -47h102v2138h-102v422h422v-2982h-422v422z" horiz-adv-x="512" unicode="]"/><glyph d="M-8 1221v114h51v103h51v153h51v103h52v153h51v103h51v102h115v-102h51v-103h51v-153h51v-103h51v-153h52v-103h51v-114h-217v102h-51v102h-52v154h-90v-154h-51v-102h-51v-102h-217z" unicode="^"/><glyph d="M-8 4h934v-422h-934v422z" horiz-adv-x="1024" unicode="_"/><glyph d="M-8 1784v268h319v-102h51v-154h52v-268h-320v102h-51v154h-51z" horiz-adv-x="512" unicode="`"/><glyph d="M-8 -8v985h51v102h51v103h51v51h422v-51h51v-103h52v-102h51v-985h-320v256h-90v-256h-319zM311 516h90v295h-90v-295z" unicode="a"/><glyph d="M-8 -8v1241h575v-51h51v-103h52v-102h51v-320h-51v-51h-52v-39h52v-51h51v-268h-51v-103h-52v-102h-51v-51h-217v819h-39v-819h-319z" unicode="b"/><glyph d="M-8 248v729h51v102h51v103h51v51h576v-422h-410v-397h410v-422h-576v51h-51v102h-51v103h-51z" unicode="c"/><glyph d="M-8 -8v1241h575v-51h51v-103h52v-102h51v-729h-51v-103h-52v-102h-51v-51h-217v819h-39v-819h-319z" unicode="d"/><glyph d="M-8 248v729h51v102h51v103h51v51h576v-422h-410v-397h410v-422h-576v51h-51v102h-51v103h-51zM350 453v319h320v-319h-320z" unicode="e"/><glyph d="M-8 -8v985h51v102h51v103h51v51h576v-422h-410v-819h-319zM350 453v319h320v-319h-320z" unicode="f"/><glyph d="M-8 248v729h51v102h51v103h51v51h576v-422h-410v-397h90v204h320v-626h-576v51h-51v102h-51v103h-51z" unicode="g"/><glyph d="M-8 -8v1241h319v-461h90v461h320v-1241h-320v409h-90v-409h-319z" unicode="h"/><glyph d="M-8 -8v1241h319v-1241h-319z" horiz-adv-x="409" unicode="i"/><glyph d="M-8 248v268h319v-102h90v819h320v-985h-51v-103h-52v-102h-51v-51h-422v51h-51v102h-51v103h-51z" unicode="j"/><glyph d="M-8 -8v1241h319v-461h90v461h320v-576h-51v-51h-52v-39h52v-51h51v-524h-320v409h-90v-409h-319z" unicode="k"/><glyph d="M-8 -8v1241h319v-819h410v-422h-729z" unicode="l"/><glyph d="M-8 -8v985h51v102h51v103h51v51h371v-51h51v-52h39v52h51v51h320v-51h51v-103h51v-102h51v-985h-319v819h-90v-819h-320v819h-90v-819h-319z" horiz-adv-x="1228" unicode="m"/><glyph d="M-8 -8v985h51v102h51v103h51v51h422v-51h51v-103h52v-102h51v-985h-320v819h-90v-819h-319z" unicode="n"/><glyph d="M-8 248v729h51v102h51v103h51v51h422v-51h51v-103h52v-102h51v-729h-51v-103h-52v-102h-51v-51h-422v51h-51v102h-51v103h-51zM311 414h90v397h-90v-397z" unicode="o"/><glyph d="M-8 -8v1241h575v-51h51v-103h52v-102h51v-320h-51v-102h-52v-102h-51v-52h-217v410h-39v-819h-319z" unicode="p"/><glyph d="M-8 248v729h51v102h51v103h51v51h422v-51h51v-103h52v-102h51v-563h102v-422h-678v51h-51v102h-51v103h-51zM311 414h90v397h-90v-397z" horiz-adv-x="921" unicode="q"/><glyph d="M-8 -8v1241h575v-51h51v-103h52v-102h51v-320h-51v-51h-52v-39h52v-51h51v-524h-320v409h-51v410h-39v-819h-319z" unicode="r"/><glyph d="M-8 248v166h409v39h-102v51h-102v51h-103v51h-51v103h-51v268h51v102h51v103h51v51h422v-51h51v-103h52v-102h51v-166h-359v-39h52v-51h102v-51h102v-52h52v-102h51v-268h-51v-103h-52v-102h-51v-51h-422v51h-51v102h-51v103h-51z" unicode="s"/><glyph d="M-8 811v422h729v-422h-205v-819h-319v819h-205z" unicode="t"/><glyph d="M-8 248v985h319v-819h90v819h320v-985h-51v-103h-52v-102h-51v-51h-422v51h-51v102h-51v103h-51z" unicode="u"/><glyph d="M-8 401v832h319v-819h90v819h320v-832h-51v-51h-52v-102h-51v-51h-51v-103h-51v-51h-51v-51h-115v51h-51v51h-51v103h-52v51h-51v102h-51v51h-51z" unicode="v"/><glyph d="M-8 248v985h319v-819h90v819h320v-819h90v819h319v-985h-51v-103h-51v-102h-51v-51h-320v51h-51v51h-39v-51h-51v-51h-371v51h-51v102h-51v103h-51z" horiz-adv-x="1228" unicode="w"/><glyph d="M-8 -8v524h51v51h51v39h-51v51h-51v576h319v-461h90v461h320v-576h-51v-51h-52v-39h52v-51h51v-524h-320v409h-90v-409h-319z" unicode="x"/><glyph d="M-8 657v576h319v-461h90v461h320v-576h-51v-51h-52v-51h-51v-51h-51v-512h-319v512h-52v51h-51v51h-51v51h-51z" unicode="y"/><glyph d="M-8 -8v473h51v51h51v51h51v51h52v52h51v51h51v51h51v39h-358v422h729v-473h-51v-51h-52v-52h-51v-51h-51v-51h-51v-51h-51v-51h-52v-39h359v-422h-729z" unicode="z"/><glyph d="M-8 862v371h102v1024h51v102h52v103h51v51h268v-422h-102v-973h-52v-51h-51v-39h51v-51h52v-1024h102v-422h-268v51h-51v103h-52v102h-51v1075h-102z" horiz-adv-x="614" unicode="{"/><glyph d="M-8 -469v2982h319v-2982h-319z" horiz-adv-x="409" unicode="|"/><glyph d="M-8 -47h102v1024h51v51h52v39h-52v51h-51v973h-102v422h268v-51h51v-103h51v-102h52v-1024h102v-371h-102v-1075h-52v-102h-51v-103h-51v-51h-268v422z" horiz-adv-x="614" unicode="}"/><glyph d="M-8 709v421h51v52h102v51h217v-51h103v-52h102v-51h51v-51h91v51h51v51h166v-421h-52v-52h-102v-51h-217v51h-102v52h-103v51h-51v51h-90v-51h-51v-51h-166z" horiz-adv-x="1024" unicode="~"/><glyph d="M-8 -8v1548h319v-1548h-319zM-8 1630v422h319v-422h-319z" horiz-adv-x="409" unicode="¡"/><glyph d="M-8 248v729h51v102h51v103h51v51h205v153h115v-153h256v-422h-410v-397h410v-422h-256v-154h-115v154h-205v51h-51v102h-51v103h-51z" unicode="¢"/><glyph d="M-8 -8v422h51v102h51v295h-102v422h102v563h51v102h52v103h51v51h422v-51h51v-103h51v-102h51v-371h-319v205h-90v-1216h409v-422h-831zM453 811v422h370v-422h-370z" horiz-adv-x="921" unicode="£"/><glyph d="M-8 197v319h307v90h-307v320h256v39h-51v51h-52v51h-51v985h320v-819h90v819h319v-985h-51v-51h-51v-51h-51v-39h256v-320h-308v-90h308v-319h-308v-205h-319v205h-307z" horiz-adv-x="1024" unicode="¥"/><glyph d="M-8 1733v217h51v51h51v51h217v-51h51v-51h52v-217h-52v-52h-51v-51h-217v51h-51v52h-51zM55 1745h51v-51h193v51h51v192h-51v52h-193v-52h-51v-192zM94 1784v114h51v52h115v-64h-102v-90h102v-63h-115v51h-51z" horiz-adv-x="512" unicode="©"/><glyph d="M-8 811v422h934v-422h-934z" horiz-adv-x="1024" unicode="­"/><glyph d="M-8 248v575h51v103h51v102h51v102h52v410h319v-371h-51v-102h-51v-102h-52v-103h-51v-448h90v409h320v-575h-51v-103h-52v-102h-51v-51h-422v51h-51v102h-51v103h-51zM197 1630v422h319v-422h-319z" unicode="¿"/><glyph d="M-8 -8v1804h51v102h51v103h51v51h422v-51h51v-103h52v-102h51v-1804h-320v409h-90v-409h-319zM94 2398v115h320v-103h51v-153h51v-115h-319v103h-52v153h-51zM311 823h90v807h-90v-807z" unicode="À"/><glyph d="M-8 -8v1804h51v102h51v103h51v51h422v-51h51v-103h52v-102h51v-1804h-320v409h-90v-409h-319zM197 2142v115h51v153h51v103h319v-115h-51v-153h-51v-103h-319zM311 823h90v807h-90v-807z" unicode="Á"/><glyph d="M-8 -8v1804h51v102h51v103h51v51h422v-51h51v-103h52v-102h51v-1804h-320v409h-90v-409h-319zM94 2142v115h51v102h52v103h51v51h217v-51h51v-103h51v-102h51v-115h-217v103h-90v-103h-217zM311 823h90v807h-90v-807z" unicode="Â"/><glyph d="M-8 -8v1804h51v102h51v103h51v51h422v-51h51v-103h52v-102h51v-1804h-320v409h-90v-409h-319zM43 2193v269h51v51h217v-51h154v-52h90v52h115v-269h-52v-51h-217v51h-153v52h-90v-52h-115zM311 823h90v807h-90v-807z" unicode="Ã"/><glyph d="M-8 -8v1804h51v102h51v103h51v51h422v-51h51v-103h52v-102h51v-1804h-320v409h-90v-409h-319zM43 2142v320h268v-320h-268zM311 823h90v807h-90v-807zM401 2142v320h269v-320h-269z" unicode="Ä"/><glyph d="M-8 -8v1804h51v102h51v52h51v39h-51v102h-51v268h51v103h51v51h422v-51h51v-103h52v-268h-52v-102h-51v-39h51v-52h52v-102h51v-1804h-320v409h-90v-409h-319zM260 2206h51v-52h90v52h52v39h-52v51h-90v-51h-51v-39zM311 823h90v807h-90v-807z" unicode="Å"/><glyph d="M-8 -8v1804h51v102h51v103h51v51h985v-422h-409v-1216h409v-422h-729v409h-90v-409h-319zM311 823h90v807h-90v-807zM760 811v422h370v-422h-370z" horiz-adv-x="1228" unicode="Æ"/><glyph d="M-8 248v1548h51v102h51v103h51v51h422v-51h51v-103h52v-102h51v-575h-320v409h-90v-1216h90v409h320v-575h-51v-103h-52v-102h-51v-51h-102v-39h153v-51h52v-320h-52v-51h-370v217h205v39h-205v205h-103v51h-51v102h-51v103h-51z" unicode="Ç"/><glyph d="M-8 -8v2060h729v-422h-410v-1216h410v-422h-729zM94 2398v115h320v-103h51v-153h51v-115h-319v103h-52v153h-51zM350 811v422h371v-422h-371z" unicode="È"/><glyph d="M-8 -8v2060h729v-422h-410v-1216h410v-422h-729zM197 2142v115h51v153h51v103h319v-115h-51v-153h-51v-103h-319zM350 811v422h371v-422h-371z" unicode="É"/><glyph d="M-8 -8v2060h729v-422h-410v-1216h410v-422h-729zM94 2142v115h51v102h52v103h51v51h217v-51h51v-103h51v-102h51v-115h-217v103h-90v-103h-217zM350 811v422h371v-422h-371z" unicode="Ê"/><glyph d="M-8 -8v2060h729v-422h-410v-1216h410v-422h-729zM43 2142v320h268v-320h-268zM350 811v422h371v-422h-371zM401 2142v320h269v-320h-269z" unicode="Ë"/><glyph d="M-8 2398v115h319v-103h51v-153h52v-115h-320v103h-51v153h-51zM94 -8v2060h320v-2060h-320z" horiz-adv-x="512" unicode="Ì"/><glyph d="M-8 -8v2060h319v-2060h-319zM-8 2142v115h51v153h51v103h320v-115h-52v-153h-51v-103h-319z" horiz-adv-x="512" unicode="Í"/><glyph d="M-8 2142v115h51v102h51v103h51v51h217v-51h52v-103h51v-102h51v-115h-217v103h-90v-103h-217zM94 -8v2060h320v-2060h-320z" horiz-adv-x="614" unicode="Î"/><glyph d="M-8 2142v320h268v-320h-268zM145 -8v2060h320v-2060h-320zM350 2142v320h268v-320h-268z" horiz-adv-x="716" unicode="Ï"/><glyph d="M-8 811v422h102v819h576v-51h51v-103h51v-102h51v-1548h-51v-103h-51v-102h-51v-51h-217v422h51v1216h-90v-397h51v-422h-51v-819h-320v819h-102z" horiz-adv-x="921" unicode="Ð"/><glyph d="M-8 -8v1804h51v102h51v103h51v51h422v-51h51v-103h52v-102h51v-1804h-320v1638h-90v-1638h-319zM43 2193v269h51v51h217v-51h154v-52h90v52h115v-269h-52v-51h-217v51h-153v52h-90v-52h-115z" unicode="Ñ"/><glyph d="M-8 248v1548h51v102h51v103h51v51h422v-51h51v-103h52v-102h51v-1548h-51v-103h-52v-102h-51v-51h-422v51h-51v102h-51v103h-51zM94 2398v115h320v-103h51v-153h51v-115h-319v103h-52v153h-51zM311 414h90v1216h-90v-1216z" unicode="Ò"/><glyph d="M-8 248v1548h51v102h51v103h51v51h422v-51h51v-103h52v-102h51v-1548h-51v-103h-52v-102h-51v-51h-422v51h-51v102h-51v103h-51zM197 2142v115h51v153h51v103h319v-115h-51v-153h-51v-103h-319zM311 414h90v1216h-90v-1216z" unicode="Ó"/><glyph d="M-8 248v1548h51v102h51v103h51v51h422v-51h51v-103h52v-102h51v-1548h-51v-103h-52v-102h-51v-51h-422v51h-51v102h-51v103h-51zM94 2142v115h51v102h52v103h51v51h217v-51h51v-103h51v-102h51v-115h-217v103h-90v-103h-217zM311 414h90v1216h-90v-1216z" unicode="Ô"/><glyph d="M-8 248v1548h51v102h51v103h51v51h422v-51h51v-103h52v-102h51v-1548h-51v-103h-52v-102h-51v-51h-422v51h-51v102h-51v103h-51zM43 2193v269h51v51h217v-51h154v-52h90v52h115v-269h-52v-51h-217v51h-153v52h-90v-52h-115zM311 414h90v1216h-90v-1216z" unicode="Õ"/><glyph d="M-8 248v1548h51v102h51v103h51v51h422v-51h51v-103h52v-102h51v-1548h-51v-103h-52v-102h-51v-51h-422v51h-51v102h-51v103h-51zM43 2142v320h268v-320h-268zM311 414h90v1216h-90v-1216zM401 2142v320h269v-320h-269z" unicode="Ö"/><glyph d="M-8 401v320h51v51h51v39h-51v51h-51v371h319v-256h90v256h320v-371h-51v-51h-52v-39h52v-51h51v-320h-320v205h-90v-205h-319z" unicode="×"/><glyph d="M-8 -8v114h51v103h51v102h51v103h52v1382h51v102h51v103h51v51h422v-51h51v-103h51v-51h39v103h52v102h165v-63h-51v-103h-51v-102h-51v-103h-51v-1433h-52v-103h-51v-102h-51v-51h-422v51h-51v102h-51v103h-39v-103h-51v-102h-52v-51h-114zM516 414h90v551h-39v-103h-51 v-448zM516 1130h39v103h51v397h-90v-500z" horiz-adv-x="1228" unicode="Ø"/><glyph d="M-8 248v1804h319v-1638h90v1638h320v-1804h-51v-103h-52v-102h-51v-51h-422v51h-51v102h-51v103h-51zM94 2398v115h320v-103h51v-153h51v-115h-319v103h-52v153h-51z" unicode="Ù"/><glyph d="M-8 248v1804h319v-1638h90v1638h320v-1804h-51v-103h-52v-102h-51v-51h-422v51h-51v102h-51v103h-51zM197 2142v115h51v153h51v103h319v-115h-51v-153h-51v-103h-319z" unicode="Ú"/><glyph d="M-8 248v1804h319v-1638h90v1638h320v-1804h-51v-103h-52v-102h-51v-51h-422v51h-51v102h-51v103h-51zM94 2142v115h51v102h52v103h51v51h217v-51h51v-103h51v-102h51v-115h-217v103h-90v-103h-217z" unicode="Û"/><glyph d="M-8 248v1804h319v-1638h90v1638h320v-1804h-51v-103h-52v-102h-51v-51h-422v51h-51v102h-51v103h-51zM43 2142v320h268v-320h-268zM401 2142v320h269v-320h-269z" unicode="Ü"/><glyph d="M-8 1067v985h319v-819h90v819h320v-985h-51v-51h-52v-51h-51v-52h-51v-921h-319v921h-52v52h-51v51h-51v51h-51zM197 2142v115h51v153h51v103h319v-115h-51v-153h-51v-103h-319z" unicode="Ý"/><glyph d="M-8 -8v2060h319v-410h256v-51h51v-102h52v-103h51v-729h-51v-102h-52v-102h-51v-52h-217v422h51v398h-90v-1229h-319z" unicode="Þ"/><glyph d="M-8 -8v1804h51v102h51v103h51v51h371v-51h51v-103h51v-102h52v-729h-52v-90h52v-51h51v-678h-51v-103h-52v-102h-51v-51h-217v422h51v397h-51v819h-39v-1638h-319z" unicode="ß"/><glyph d="M-8 -8v985h51v102h51v103h51v51h422v-51h51v-103h52v-102h51v-985h-320v256h-90v-256h-319zM94 1579v115h320v-103h51v-153h51v-115h-319v102h-52v154h-51zM311 516h90v295h-90v-295z" unicode="à"/><glyph d="M-8 -8v985h51v102h51v103h51v51h422v-51h51v-103h52v-102h51v-985h-320v256h-90v-256h-319zM197 1323v115h51v153h51v103h319v-115h-51v-154h-51v-102h-319zM311 516h90v295h-90v-295z" unicode="á"/><glyph d="M-8 -8v985h51v102h51v103h51v51h422v-51h51v-103h52v-102h51v-985h-320v256h-90v-256h-319zM94 1323v115h51v102h52v102h51v52h217v-52h51v-102h51v-102h51v-115h-217v102h-90v-102h-217zM311 516h90v295h-90v-295z" unicode="â"/><glyph d="M-8 -8v985h51v102h51v103h51v51h422v-51h51v-103h52v-102h51v-985h-320v256h-90v-256h-319zM43 1374v268h51v52h217v-52h154v-51h90v51h115v-268h-52v-51h-217v51h-153v51h-90v-51h-115zM311 516h90v295h-90v-295z" unicode="ã"/><glyph d="M-8 -8v985h51v102h51v103h51v51h422v-51h51v-103h52v-102h51v-985h-320v256h-90v-256h-319zM43 1323v319h268v-319h-268zM311 516h90v295h-90v-295zM401 1323v319h269v-319h-269z" unicode="ä"/><glyph d="M-8 -8v985h51v102h51v103h51v51h422v-51h51v-103h52v-102h51v-985h-320v256h-90v-256h-319zM43 1477v268h51v102h51v51h422v-51h51v-102h52v-268h-52v-103h-51v-51h-422v51h-51v103h-51zM260 1591h51v-51h90v51h52v39h-52v51h-90v-51h-51v-39zM311 516h90v295h-90v-295z" unicode="å"/><glyph d="M-8 -8v985h51v102h51v103h51v51h985v-422h-409v-397h409v-422h-729v256h-90v-256h-319zM311 516h90v295h-90v-295zM760 453v319h319v-319h-319z" horiz-adv-x="1228" unicode="æ"/><glyph d="M-8 248v729h51v102h51v103h51v51h576v-422h-410v-397h410v-422h-256v-39h153v-51h52v-320h-52v-51h-370v217h205v39h-205v205h-103v51h-51v102h-51v103h-51z" unicode="ç"/><glyph d="M-8 248v729h51v102h51v103h51v51h576v-422h-410v-397h410v-422h-576v51h-51v102h-51v103h-51zM94 1579v115h320v-103h51v-153h51v-115h-319v102h-52v154h-51zM350 453v319h320v-319h-320z" unicode="è"/><glyph d="M-8 248v729h51v102h51v103h51v51h576v-422h-410v-397h410v-422h-576v51h-51v102h-51v103h-51zM197 1323v115h51v153h51v103h319v-115h-51v-154h-51v-102h-319zM350 453v319h320v-319h-320z" unicode="é"/><glyph d="M-8 248v729h51v102h51v103h51v51h576v-422h-410v-397h410v-422h-576v51h-51v102h-51v103h-51zM94 1323v115h51v102h52v102h51v52h217v-52h51v-102h51v-102h51v-115h-217v102h-90v-102h-217zM350 453v319h320v-319h-320z" unicode="ê"/><glyph d="M-8 248v729h51v102h51v103h51v51h576v-422h-410v-397h410v-422h-576v51h-51v102h-51v103h-51zM43 1323v319h268v-319h-268zM350 453v319h320v-319h-320zM401 1323v319h269v-319h-269z" unicode="ë"/><glyph d="M-8 1579v115h319v-103h51v-153h52v-115h-320v102h-51v154h-51zM94 -8v1241h320v-1241h-320z" horiz-adv-x="512" unicode="ì"/><glyph d="M-8 -8v1241h319v-1241h-319zM-8 1323v115h51v153h51v103h320v-115h-52v-154h-51v-102h-319z" horiz-adv-x="512" unicode="í"/><glyph d="M-8 1323v115h51v102h51v102h51v52h217v-52h52v-102h51v-102h51v-115h-217v102h-90v-102h-217zM94 -8v1241h320v-1241h-320z" horiz-adv-x="614" unicode="î"/><glyph d="M-8 1323v319h268v-319h-268zM145 -8v1241h320v-1241h-320zM350 1323v319h268v-319h-268z" horiz-adv-x="716" unicode="ï"/><glyph d="M-8 248v729h51v102h51v103h51v51h256v192h-153v422h153v205h320v-205h153v-422h-153v-1177h-51v-103h-52v-102h-51v-51h-422v51h-51v102h-51v103h-51zM311 414h90v397h-90v-397z" horiz-adv-x="972" unicode="ð"/><glyph d="M-8 -8v985h51v102h51v103h51v51h422v-51h51v-103h52v-102h51v-985h-320v819h-90v-819h-319zM43 1374v268h51v52h217v-52h154v-51h90v51h115v-268h-52v-51h-217v51h-153v51h-90v-51h-115z" unicode="ñ"/><glyph d="M-8 248v729h51v102h51v103h51v51h422v-51h51v-103h52v-102h51v-729h-51v-103h-52v-102h-51v-51h-422v51h-51v102h-51v103h-51zM94 1579v115h320v-103h51v-153h51v-115h-319v102h-52v154h-51zM311 414h90v397h-90v-397z" unicode="ò"/><glyph d="M-8 248v729h51v102h51v103h51v51h422v-51h51v-103h52v-102h51v-729h-51v-103h-52v-102h-51v-51h-422v51h-51v102h-51v103h-51zM197 1323v115h51v153h51v103h319v-115h-51v-154h-51v-102h-319zM311 414h90v397h-90v-397z" unicode="ó"/><glyph d="M-8 248v729h51v102h51v103h51v51h422v-51h51v-103h52v-102h51v-729h-51v-103h-52v-102h-51v-51h-422v51h-51v102h-51v103h-51zM94 1323v115h51v102h52v102h51v52h217v-52h51v-102h51v-102h51v-115h-217v102h-90v-102h-217zM311 414h90v397h-90v-397z" unicode="ô"/><glyph d="M-8 248v729h51v102h51v103h51v51h422v-51h51v-103h52v-102h51v-729h-51v-103h-52v-102h-51v-51h-422v51h-51v102h-51v103h-51zM43 1374v268h51v52h217v-52h154v-51h90v51h115v-268h-52v-51h-217v51h-153v51h-90v-51h-115zM311 414h90v397h-90v-397z" unicode="õ"/><glyph d="M-8 248v729h51v102h51v103h51v51h422v-51h51v-103h52v-102h51v-729h-51v-103h-52v-102h-51v-51h-422v51h-51v102h-51v103h-51zM43 1323v319h268v-319h-268zM311 414h90v397h-90v-397zM401 1323v319h269v-319h-269z" unicode="ö"/><glyph d="M-8 811v422h934v-422h-934zM299 197v421h319v-421h-319zM299 1425v422h319v-422h-319z" horiz-adv-x="1024" unicode="÷"/><glyph d="M-8 -8v114h51v103h51v768h51v102h52v103h51v51h422v-51h51v-52h90v103h115v-115h-52v-102h-51v-768h-51v-103h-51v-102h-51v-51h-422v51h-51v51h-91v-102h-114zM414 414h90v141h-39v-102h-51v-39zM414 670h39v102h51v39h-90v-141z" horiz-adv-x="1024" unicode="ø"/><glyph d="M-8 248v985h319v-819h90v819h320v-985h-51v-103h-52v-102h-51v-51h-422v51h-51v102h-51v103h-51zM94 1579v115h320v-103h51v-153h51v-115h-319v102h-52v154h-51z" unicode="ù"/><glyph d="M-8 248v985h319v-819h90v819h320v-985h-51v-103h-52v-102h-51v-51h-422v51h-51v102h-51v103h-51zM197 1323v115h51v153h51v103h319v-115h-51v-154h-51v-102h-319z" unicode="ú"/><glyph d="M-8 248v985h319v-819h90v819h320v-985h-51v-103h-52v-102h-51v-51h-422v51h-51v102h-51v103h-51zM94 1323v115h51v102h52v102h51v52h217v-52h51v-102h51v-102h51v-115h-217v102h-90v-102h-217z" unicode="û"/><glyph d="M-8 248v985h319v-819h90v819h320v-985h-51v-103h-52v-102h-51v-51h-422v51h-51v102h-51v103h-51zM43 1323v319h268v-319h-268zM401 1323v319h269v-319h-269z" unicode="ü"/><glyph d="M-8 657v576h319v-461h90v461h320v-576h-51v-51h-52v-51h-51v-51h-51v-512h-319v512h-52v51h-51v51h-51v51h-51zM197 1323v115h51v153h51v103h319v-115h-51v-154h-51v-102h-319z" unicode="ý"/><glyph d="M-8 -8v1241h319v-205h256v-51h51v-103h52v-102h51v-319h-51v-103h-52v-102h-51v-51h-217v409h-39v-614h-319z" unicode="þ"/><glyph d="M-8 657v576h319v-461h90v461h320v-576h-51v-51h-52v-51h-51v-51h-51v-512h-319v512h-52v51h-51v51h-51v51h-51zM43 1323v319h268v-319h-268zM401 1323v319h269v-319h-269z" unicode="ÿ"/><glyph d="M-8 1067v985h319v-819h90v819h320v-985h-51v-51h-52v-51h-51v-52h-51v-921h-319v921h-52v52h-51v51h-51v51h-51zM43 2142v320h268v-320h-268zM401 2142v320h269v-320h-269z" unicode="Ÿ"/><glyph horiz-adv-x="1256"/><glyph horiz-adv-x="2513"/><glyph horiz-adv-x="1256"/><glyph horiz-adv-x="2513"/><glyph horiz-adv-x="837"/><glyph horiz-adv-x="628"/><glyph horiz-adv-x="418"/><glyph horiz-adv-x="418"/><glyph horiz-adv-x="314"/><glyph horiz-adv-x="502"/><glyph horiz-adv-x="139"/><glyph d="M-8 811v422h934v-422h-934z" horiz-adv-x="1024" unicode="‐"/><glyph d="M-8 811v422h934v-422h-934z" horiz-adv-x="1024" unicode="‑"/><glyph d="M-8 811v422h934v-422h-934z" horiz-adv-x="1024" unicode="‒"/><glyph d="M-8 811v422h1024v-422h-1024z" horiz-adv-x="1114" unicode="–"/><glyph d="M-8 811v422h2048v-422h-2048z" horiz-adv-x="2138" unicode="—"/><glyph horiz-adv-x="502"/><glyph horiz-adv-x="628"/><glyph d="M-8 606v371h102v90h-102v371h102v358h51v102h52v103h51v51h422v-51h51v-103h51v-102h51v-268h-319v102h-90v-1216h90v102h319v-268h-51v-103h-51v-102h-51v-51h-422v51h-51v102h-52v103h-51v358h-102zM453 606v371h370v-371h-370zM453 1067v371h370v-371h-370z" horiz-adv-x="921" unicode="€"/><glyph d="M0 0v1229h1229v-1229h-1229z" horiz-adv-x="1228" unicode=""/></font>
</defs>
</svg>
